<?xml version="1.0" encoding="UTF-8" standalone="no"?>
<!DOCTYPE svg PUBLIC "-//W3C//DTD SVG 1.1//EN" "http://www.w3.org/Graphics/SVG/1.1/DTD/svg11.dtd">

<!-- Created with Vectornator (http://vectornator.io/) -->
<svg height="100%" stroke-miterlimit="10" style="fill-rule:nonzero;clip-rule:evenodd;stroke-linecap:round;stroke-linejoin:round;" version="1.1" viewBox="0 0 1860.44 496.158" width="100%" xml:space="preserve" xmlns="http://www.w3.org/2000/svg" xmlns:vectornator="http://vectornator.io" xmlns:xlink="http://www.w3.org/1999/xlink">
<metadata>
<vectornator:setting key="IsTimeLapseWatermarkDisabled" value="false"/>
<vectornator:setting key="UndoHistoryDisabled" value="true"/>
<vectornator:setting key="VNDimensionsVisible" value="true"/>
<vectornator:setting key="VNSnapToGuides" value="true"/>
<vectornator:setting key="WDCMYKEnabledKey" value="false"/>
<vectornator:setting key="WDDisplayWhiteBackground" value="false"/>
<vectornator:setting key="WDDynamicGuides" value="false"/>
<vectornator:setting key="WDGuidesVisible" value="true"/>
<vectornator:setting key="WDIsolateActiveLayer" value="false"/>
<vectornator:setting key="WDOutlineMode" value="false"/>
<vectornator:setting key="WDRulersVisible" value="true"/>
<vectornator:setting key="WDSnapToEdges" value="false"/>
<vectornator:setting key="WDSnapToGrid" value="false"/>
<vectornator:setting key="WDSnapToPoints" value="false"/>
<vectornator:setting key="WDUnits" value="Points"/>
</metadata>
<defs>
<clipPath id="TextBounds">
<rect height="308.553" width="1914.99" x="0" y="11.1968"/>
</clipPath>
<clipPath id="TextBounds_2">
<rect height="138.377" width="1326.9" x="270.854" y="359.087"/>
</clipPath>
</defs>
<g id="Untitled" vectornator:layerName="Untitled">
<g opacity="1">
<g fill="#14b9de" opacity="1" stroke="none">
<path clip-path="url(#TextBounds)" d="M69 253.197L109.5 253.197L109.5 91.7968L173.1 91.7968L173.1 55.1968L5.7 55.1968L5.7 91.7968L69 91.7968L69 253.197Z" fill-rule="evenodd"/>
<path clip-path="url(#TextBounds)" d="M198 171.297C198 223.797 233.4 256.797 282 256.797C330 256.797 366 223.797 366 171.297L366 55.1968L325.5 55.1968L325.5 174.297C325.5 203.097 308.1 219.297 282 219.297C256.5 219.297 238.5 203.097 238.5 174.297L238.5 55.1968L198 55.1968L198 171.297Z" fill-rule="evenodd"/>
<path clip-path="url(#TextBounds)" d="M576.9 253.197L520.8 175.497C542.4 164.697 555.6 144.297 555.6 119.097C555.6 80.9968 525.6 55.1968 484.2 55.1968L409.8 55.1968L409.8 253.197L450.3 253.197L450.3 183.297L480 183.297L531.3 253.197L576.9 253.197ZM450.3 90.8968L484.2 90.8968C502.5 90.8968 514.2 102.297 514.2 119.097C514.2 136.197 503.1 147.597 484.2 147.597L450.3 147.597L450.3 90.8968Z" fill-rule="evenodd"/>
<path clip-path="url(#TextBounds)" d="M729.9 55.1968L729.9 173.397L615 51.5968L601.8 51.5968L601.8 253.197L642.3 253.197L642.3 134.397L756.9 256.797L770.4 256.797L770.4 55.1968L729.9 55.1968Z" fill-rule="evenodd"/>
<path clip-path="url(#TextBounds)" d="M801.9 212.997C817.2 239.697 844.8 256.797 878.4 256.797C918 256.797 947.7 233.697 947.7 197.397C947.7 170.697 932.1 154.197 898.8 139.497L876.3 129.597C859.5 122.097 853.2 117.297 853.2 106.797C853.2 94.4968 863.7 87.5968 877.8 87.5968C892.8 87.5968 905.4 95.0968 915.6 110.397L943.2 89.0968C930.9 66.2968 908.1 51.5968 877.8 51.5968C840.3 51.5968 812.1 73.7968 812.1 107.697C812.1 134.097 829.8 151.197 860.1 164.697L881.4 174.297C900.3 182.997 906.6 187.197 906.6 198.897C906.6 212.397 896.1 220.797 878.4 220.797C856.8 220.797 842.7 209.697 829.8 191.997L801.9 212.997Z" fill-rule="evenodd"/>
<path clip-path="url(#TextBounds)" d="M1028.1 253.197L1068.6 253.197L1068.6 91.7968L1132.2 91.7968L1132.2 55.1968L964.8 55.1968L964.8 91.7968L1028.1 91.7968L1028.1 253.197Z" fill-rule="evenodd"/>
<path clip-path="url(#TextBounds)" d="M1623 55.1968L1623 173.397L1508.1 51.5968L1494.9 51.5968L1494.9 253.197L1535.4 253.197L1535.4 134.397L1650 256.797L1663.5 256.797L1663.5 55.1968L1623 55.1968Z" fill-rule="evenodd"/>
<path clip-path="url(#TextBounds)" d="M1708.8 253.197L1845.6 253.197L1845.6 216.597L1749.3 216.597L1749.3 166.497L1817.4 166.497L1817.4 131.997L1749.3 131.997L1749.3 91.7968L1842 91.7968L1842 55.1968L1708.8 55.1968L1708.8 253.197Z" fill-rule="evenodd"/>
</g>
<g opacity="1">
<path d="M1310.85 0C1223.5 0 1152.69 70.8058 1152.69 158.163C1152.69 245.508 1223.5 316.319 1310.85 316.319C1398.2 316.319 1469.01 245.508 1469.01 158.163C1469.01 70.8051 1398.2 0 1310.85 0Z" fill="#a1cdd8" fill-rule="evenodd" opacity="1" stroke="none"/>
<path d="M1311.05 189.933C1257.71 189.933 1214.47 204.027 1214.47 227.29C1214.47 250.553 1257.71 254.001 1311.05 254.001C1364.38 254.001 1407.62 250.553 1407.62 227.29C1407.62 196.176 1364.38 189.933 1311.05 189.933Z" fill="#828282" fill-rule="evenodd" opacity="1" stroke="none"/>
<path d="M1303.37 199.04C1263.13 191.996 1225.98 212.142 1222.91 229.693C1219.84 247.244 1343.61 206.083 1303.37 199.04Z" fill="#929292" fill-rule="evenodd" opacity="1" stroke="none"/>
<path d="M1315.96 132.919C1270.74 132.919 1234.08 143.432 1234.08 165.576C1234.08 187.719 1270.74 193.905 1315.96 193.905C1361.19 193.905 1397.85 194.413 1397.85 172.27C1397.85 150.125 1361.19 132.919 1315.96 132.919Z" fill="#b5b5b5" fill-rule="evenodd" opacity="1" stroke="none"/>
<path d="M1309.45 141.587C1275.33 134.882 1243.83 154.059 1241.23 170.766C1238.62 187.473 1343.58 148.292 1309.45 141.587Z" fill="#c4c4c4" fill-rule="evenodd" opacity="1" stroke="none"/>
<path d="M1305.38 86.9382C1270.7 86.9382 1242.59 91.7217 1242.59 111.069C1242.59 130.416 1270.7 140.22 1305.38 140.22C1340.06 140.22 1368.17 137.352 1368.17 118.006C1368.17 90.9872 1340.06 86.9382 1305.38 86.9382Z" fill="#828282" fill-rule="evenodd" opacity="1" stroke="none"/>
<path d="M1300.39 94.5116C1274.23 88.6538 1250.07 105.407 1248.08 120.004C1246.08 134.6 1326.56 100.369 1300.39 94.5116Z" fill="#929292" fill-rule="evenodd" opacity="1" stroke="none"/>
<path d="M1318.77 54.2749C1295.19 54.2749 1276.06 58.4737 1276.06 75.4056C1276.06 88.5639 1295.19 90.5142 1318.77 90.5142C1342.36 90.5142 1361.48 84.0635 1361.48 70.9052C1361.48 57.7463 1342.36 54.2749 1318.77 54.2749Z" fill="#b5b5b5" fill-rule="evenodd" opacity="1" stroke="none"/>
<path d="M1315.38 59.4256C1297.58 55.4409 1281.15 66.837 1279.8 76.7642C1278.44 86.6921 1333.17 63.4096 1315.38 59.4256Z" fill="#c3c3c3" fill-rule="evenodd" opacity="1" stroke="none"/>
</g>
</g>
<g fill="#828282" opacity="1" stroke="none">
<path clip-path="url(#TextBounds_2)" d="M333.153 440.087L347.653 440.087L318.253 372.887L313.753 372.887L284.253 440.087L298.753 440.087L302.453 431.487L329.453 431.487L333.153 440.087ZM324.753 420.387L307.153 420.387L315.953 398.087L324.753 420.387Z" fill-rule="evenodd"/>
<path clip-path="url(#TextBounds_2)" d="M440.353 440.087L421.653 414.187C428.853 410.587 433.253 403.787 433.253 395.387C433.253 382.687 423.253 374.087 409.453 374.087L384.653 374.087L384.653 440.087L398.153 440.087L398.153 416.787L408.053 416.787L425.153 440.087L440.353 440.087ZM398.153 385.987L409.453 385.987C415.553 385.987 419.453 389.787 419.453 395.387C419.453 401.087 415.753 404.887 409.453 404.887L398.153 404.887L398.153 385.987Z" fill-rule="evenodd"/>
<path clip-path="url(#TextBounds_2)" d="M493.253 419.887C493.853 417.387 494.153 414.887 494.153 412.487C494.153 399.587 484.553 389.487 470.853 389.487C456.553 389.187 444.653 401.087 444.953 415.387C444.653 429.687 456.753 441.587 472.053 441.287C479.353 441.287 485.953 438.787 491.853 433.887L486.253 424.687C481.953 427.987 477.353 429.687 472.453 429.687C465.253 429.687 460.153 426.187 458.553 419.887L493.253 419.887ZM458.553 410.387C460.053 404.287 464.653 400.387 470.353 400.387C476.253 400.387 480.953 404.287 481.053 410.387L458.553 410.387Z" fill-rule="evenodd"/>
<path clip-path="url(#TextBounds_2)" d="M546.153 410.687C546.153 396.987 537.853 389.487 524.953 389.487C516.253 389.487 509.053 392.887 503.353 399.687L510.353 407.987C514.753 403.287 518.353 401.187 523.453 401.187C529.453 401.187 532.653 404.387 532.653 409.887L532.653 412.087L520.253 412.087C508.753 412.087 501.553 417.587 501.553 426.487C501.553 435.187 508.153 441.287 518.653 441.287C524.953 441.287 530.153 438.987 533.753 435.287L533.753 440.087L546.153 440.087L546.153 410.687ZM532.653 421.587C532.653 427.287 528.153 431.387 522.253 431.387C517.953 431.387 515.153 429.287 515.153 425.987C515.153 422.687 517.653 420.987 522.053 420.987L532.653 420.987L532.653 421.587Z" fill-rule="evenodd"/>
<path clip-path="url(#TextBounds_2)" d="M556.353 415.287C556.153 429.587 568.353 441.587 582.853 441.287C592.453 441.287 600.053 436.587 604.353 428.987L594.953 421.787C591.753 426.287 588.153 428.887 583.053 428.887C575.453 428.887 570.053 423.187 570.053 415.287C570.053 407.587 575.453 401.787 583.053 401.787C588.253 401.787 591.853 404.487 594.953 408.987L604.353 401.687C600.053 394.087 592.553 389.487 582.853 389.487C568.153 389.487 556.353 400.787 556.353 415.287Z" fill-rule="evenodd"/>
<path clip-path="url(#TextBounds_2)" d="M646.153 428.787C642.653 429.087 640.553 429.187 639.753 429.187C633.353 429.187 630.553 427.087 630.553 421.487L630.553 401.987L644.553 401.987L644.553 390.587L630.553 390.587L630.553 378.087L617.053 378.087L617.053 390.587L609.253 390.587L609.253 401.987L617.053 401.987L617.053 422.687C617.053 435.087 624.353 441.287 636.853 441.287C639.853 441.287 642.953 440.887 646.153 440.087L646.153 428.787Z" fill-rule="evenodd"/>
<path clip-path="url(#TextBounds_2)" d="M680.253 426.687C685.353 435.587 694.553 441.287 705.753 441.287C718.953 441.287 728.853 433.587 728.853 421.487C728.853 412.587 723.653 407.087 712.553 402.187L705.053 398.887C699.453 396.387 697.353 394.787 697.353 391.287C697.353 387.187 700.853 384.887 705.553 384.887C710.553 384.887 714.753 387.387 718.153 392.487L727.353 385.387C723.253 377.787 715.653 372.887 705.553 372.887C693.053 372.887 683.653 380.287 683.653 391.587C683.653 400.387 689.553 406.087 699.653 410.587L706.753 413.787C713.053 416.687 715.153 418.087 715.153 421.987C715.153 426.487 711.653 429.287 705.753 429.287C698.553 429.287 693.853 425.587 689.553 419.687L680.253 426.687Z" fill-rule="evenodd"/>
<path clip-path="url(#TextBounds_2)" d="M785.353 419.887C785.953 417.387 786.253 414.887 786.253 412.487C786.253 399.587 776.653 389.487 762.953 389.487C748.653 389.187 736.753 401.087 737.053 415.387C736.753 429.687 748.853 441.587 764.153 441.287C771.453 441.287 778.053 438.787 783.953 433.887L778.353 424.687C774.053 427.987 769.453 429.687 764.553 429.687C757.353 429.687 752.253 426.187 750.653 419.887L785.353 419.887ZM750.653 410.387C752.153 404.287 756.753 400.387 762.453 400.387C768.353 400.387 773.053 404.287 773.153 410.387L750.653 410.387Z" fill-rule="evenodd"/>
<path clip-path="url(#TextBounds_2)" d="M838.253 410.687C838.253 396.987 829.953 389.487 817.053 389.487C808.353 389.487 801.153 392.887 795.453 399.687L802.453 407.987C806.853 403.287 810.453 401.187 815.553 401.187C821.553 401.187 824.753 404.387 824.753 409.887L824.753 412.087L812.353 412.087C800.853 412.087 793.653 417.587 793.653 426.487C793.653 435.187 800.253 441.287 810.753 441.287C817.053 441.287 822.253 438.987 825.853 435.287L825.853 440.087L838.253 440.087L838.253 410.687ZM824.753 421.587C824.753 427.287 820.253 431.387 814.353 431.387C810.053 431.387 807.253 429.287 807.253 425.987C807.253 422.687 809.753 420.987 814.153 420.987L824.753 420.987L824.753 421.587Z" fill-rule="evenodd"/>
<path clip-path="url(#TextBounds_2)" d="M881.653 390.587C880.353 390.187 878.953 389.987 877.253 389.987C871.753 389.987 866.953 392.387 863.653 396.487L863.653 390.587L851.253 390.587L851.253 440.087L864.753 440.087L864.753 415.387C864.753 406.887 869.953 402.487 878.053 402.487L881.653 402.487L881.653 390.587Z" fill-rule="evenodd"/>
<path clip-path="url(#TextBounds_2)" d="M887.253 415.287C887.053 429.587 899.253 441.587 913.753 441.287C923.353 441.287 930.953 436.587 935.253 428.987L925.853 421.787C922.653 426.287 919.053 428.887 913.953 428.887C906.353 428.887 900.953 423.187 900.953 415.287C900.953 407.587 906.353 401.787 913.953 401.787C919.153 401.787 922.753 404.487 925.853 408.987L935.253 401.687C930.953 394.087 923.453 389.487 913.753 389.487C899.053 389.487 887.253 400.787 887.253 415.287Z" fill-rule="evenodd"/>
<path clip-path="url(#TextBounds_2)" d="M990.753 409.387C990.753 397.387 983.553 389.487 972.353 389.487C966.853 389.487 962.053 391.487 958.753 394.787L958.753 365.087L945.253 365.087L945.253 440.087L958.753 440.087L958.753 411.287C958.753 405.587 962.653 401.687 968.153 401.687C973.653 401.687 977.353 405.587 977.353 411.287L977.353 440.087L990.753 440.087L990.753 409.387Z" fill-rule="evenodd"/>
<path clip-path="url(#TextBounds_2)" d="M1028.85 407.087C1028.45 425.987 1044.65 441.687 1063.95 441.287C1076.65 441.287 1087.45 435.187 1093.15 424.887L1082.95 417.687C1078.25 425.087 1071.95 428.787 1064.05 428.787C1051.75 428.787 1042.75 419.787 1042.75 407.187C1042.75 394.587 1051.75 385.387 1064.05 385.387C1071.95 385.387 1078.25 389.087 1082.95 396.487L1093.15 389.287C1087.25 378.987 1076.55 372.887 1064.05 372.887C1044.85 372.487 1028.55 388.187 1028.85 407.087Z" fill-rule="evenodd"/>
<path clip-path="url(#TextBounds_2)" d="M1100.95 415.287C1100.65 429.387 1112.85 441.487 1127.35 441.187C1141.85 441.487 1154.35 429.387 1154.05 415.287C1154.35 401.187 1141.95 389.287 1127.45 389.487C1112.95 389.187 1100.65 401.187 1100.95 415.287ZM1140.25 415.387C1140.25 423.087 1134.75 428.787 1127.45 428.787C1119.95 428.787 1114.65 423.087 1114.65 415.387C1114.65 407.487 1119.95 401.787 1127.45 401.787C1134.75 401.787 1140.25 407.687 1140.25 415.387Z" fill-rule="evenodd"/>
<path clip-path="url(#TextBounds_2)" d="M1240.85 409.387C1240.85 397.387 1233.75 389.487 1222.15 389.487C1215.35 389.487 1209.55 392.187 1205.65 396.587C1202.35 391.887 1197.45 389.487 1190.95 389.487C1185.25 389.487 1180.25 391.487 1176.95 394.987L1176.95 390.587L1164.55 390.587L1164.55 440.087L1178.05 440.087L1178.05 411.287C1178.05 405.387 1181.65 401.687 1187.15 401.687C1192.45 401.687 1195.95 405.387 1195.95 411.287L1195.95 440.087L1209.45 440.087L1209.45 410.987C1209.45 405.487 1213.25 401.687 1218.55 401.687C1223.85 401.687 1227.35 405.387 1227.35 411.287L1227.35 440.087L1240.85 440.087L1240.85 409.387Z" fill-rule="evenodd"/>
<path clip-path="url(#TextBounds_2)" d="M1306.05 415.287C1306.05 400.487 1295.85 389.487 1282.05 389.487C1275.25 389.487 1269.45 392.087 1266.15 396.787L1266.15 390.587L1253.75 390.587L1253.75 458.087L1267.25 458.087L1267.25 435.287C1270.85 439.187 1276.05 441.287 1282.05 441.287C1295.85 441.287 1306.05 430.087 1306.05 415.287ZM1292.35 415.387C1292.35 423.487 1286.75 428.987 1279.55 428.987C1272.65 428.987 1267.05 424.087 1267.05 415.287C1267.05 406.387 1272.75 401.687 1279.55 401.687C1286.85 401.687 1292.35 407.087 1292.35 415.387Z" fill-rule="evenodd"/>
<path clip-path="url(#TextBounds_2)" d="M1313.85 415.287C1313.55 429.387 1325.75 441.487 1340.25 441.187C1354.75 441.487 1367.25 429.387 1366.95 415.287C1367.25 401.187 1354.85 389.287 1340.35 389.487C1325.85 389.187 1313.55 401.187 1313.85 415.287ZM1353.15 415.387C1353.15 423.087 1347.65 428.787 1340.35 428.787C1332.85 428.787 1327.55 423.087 1327.55 415.387C1327.55 407.487 1332.85 401.787 1340.35 401.787C1347.65 401.787 1353.15 407.687 1353.15 415.387Z" fill-rule="evenodd"/>
<path clip-path="url(#TextBounds_2)" d="M1422.95 409.387C1422.95 397.387 1415.85 389.487 1404.35 389.487C1398.45 389.487 1393.35 391.587 1389.85 395.087L1389.85 390.587L1377.45 390.587L1377.45 440.087L1390.95 440.087L1390.95 411.187C1390.95 405.487 1394.85 401.587 1400.35 401.587C1405.85 401.587 1409.55 405.487 1409.55 411.187L1409.55 440.087L1422.95 440.087L1422.95 409.387Z" fill-rule="evenodd"/>
<path clip-path="url(#TextBounds_2)" d="M1481.45 419.887C1482.05 417.387 1482.35 414.887 1482.35 412.487C1482.35 399.587 1472.75 389.487 1459.05 389.487C1444.75 389.187 1432.85 401.087 1433.15 415.387C1432.85 429.687 1444.95 441.587 1460.25 441.287C1467.55 441.287 1474.15 438.787 1480.05 433.887L1474.45 424.687C1470.15 427.987 1465.55 429.687 1460.65 429.687C1453.45 429.687 1448.35 426.187 1446.75 419.887L1481.45 419.887ZM1446.75 410.387C1448.25 404.287 1452.85 400.387 1458.55 400.387C1464.45 400.387 1469.15 404.287 1469.25 410.387L1446.75 410.387Z" fill-rule="evenodd"/>
<path clip-path="url(#TextBounds_2)" d="M1538.35 409.387C1538.35 397.387 1531.25 389.487 1519.75 389.487C1513.85 389.487 1508.75 391.587 1505.25 395.087L1505.25 390.587L1492.85 390.587L1492.85 440.087L1506.35 440.087L1506.35 411.187C1506.35 405.487 1510.25 401.587 1515.75 401.587C1521.25 401.587 1524.95 405.487 1524.95 411.187L1524.95 440.087L1538.35 440.087L1538.35 409.387Z" fill-rule="evenodd"/>
<path clip-path="url(#TextBounds_2)" d="M1583.15 428.787C1579.65 429.087 1577.55 429.187 1576.75 429.187C1570.35 429.187 1567.55 427.087 1567.55 421.487L1567.55 401.987L1581.55 401.987L1581.55 390.587L1567.55 390.587L1567.55 378.087L1554.05 378.087L1554.05 390.587L1546.25 390.587L1546.25 401.987L1554.05 401.987L1554.05 422.687C1554.05 435.087 1561.35 441.287 1573.85 441.287C1576.85 441.287 1579.95 440.887 1583.15 440.087L1583.15 428.787Z" fill-rule="evenodd"/>
</g>
</g>
</svg>
